<?xml version="1.0" standalone="no"?>
<!DOCTYPE svg PUBLIC "-//W3C//DTD SVG 20010904//EN"
 "http://www.w3.org/TR/2001/REC-SVG-20010904/DTD/svg10.dtd">
<svg version="1.0" xmlns="http://www.w3.org/2000/svg"
 width="1080.000000pt" height="1080.000000pt" viewBox="0 0 1080.000000 1080.000000"
 preserveAspectRatio="xMidYMid meet">

<g transform="translate(0.000000,1080.000000) scale(0.100000,-0.100000)"
fill="#000000" stroke="none">
<path d="M4726 7446 c-47 -18 -104 -70 -122 -113 -22 -51 -18 -141 9 -188 64
-114 224 -139 324 -52 46 41 63 82 63 155 0 42 -7 71 -23 103 -44 83 -162 128
-251 95z"/>
<path d="M5325 7444 c-50 -18 -89 -55 -115 -110 -19 -41 -20 -63 -20 -307 0
-253 1 -264 23 -307 14 -29 39 -56 70 -77 86 -58 178 -53 254 12 72 61 73 69
73 372 0 302 -4 322 -74 380 -63 52 -136 65 -211 37z"/>
<path d="M5946 7450 c-71 -22 -128 -85 -146 -162 -13 -60 -13 -1332 0 -1396
30 -137 183 -203 307 -132 67 38 92 76 104 153 16 100 7 1374 -9 1412 -23 51
-82 104 -136 120 -55 17 -77 17 -120 5z"/>
<path d="M4041 7048 c-78 -17 -151 -114 -151 -199 0 -92 56 -157 210 -243 58
-33 195 -112 305 -176 228 -134 493 -287 642 -372 101 -57 170 -81 208 -73 11
2 32 6 48 10 34 7 103 67 124 109 26 51 21 135 -11 191 -34 57 -43 63 -526
342 -195 112 -432 249 -526 303 -147 86 -230 122 -269 119 -5 -1 -30 -6 -54
-11z"/>
<path d="M6685 7054 c-6 -1 -27 -5 -48 -9 -86 -14 -154 -116 -145 -219 15
-181 244 -251 365 -113 104 118 38 312 -115 336 -26 4 -52 6 -57 5z"/>
<path d="M3710 6514 c-45 -19 -68 -41 -90 -84 -43 -84 -33 -183 24 -242 32
-33 337 -216 438 -263 97 -45 189 -27 256 49 74 84 66 203 -19 283 -37 34
-290 185 -404 239 -78 38 -145 44 -205 18z"/>
<path d="M6830 6467 c-336 -185 -361 -202 -394 -269 -43 -85 -30 -167 37 -236
41 -43 87 -62 148 -62 55 0 130 36 379 182 166 97 200 133 208 216 12 131 -80
232 -210 232 -46 0 -68 -8 -168 -63z"/>
<path d="M3420 5994 c-78 -34 -130 -111 -130 -194 0 -67 18 -107 68 -152 68
-61 144 -73 227 -34 62 28 98 69 115 129 46 165 -125 318 -280 251z"/>
<path d="M7240 6001 c-23 -8 -173 -92 -625 -354 -104 -61 -219 -127 -255 -147
-320 -181 -349 -201 -379 -263 -61 -125 20 -279 152 -294 88 -10 82 -13 512
237 88 51 266 153 395 227 412 237 435 253 459 316 18 46 13 126 -10 173 -42
88 -153 134 -249 105z"/>
<path d="M4556 5848 c-16 -6 -54 -25 -85 -43 -82 -47 -225 -130 -396 -230 -82
-48 -271 -157 -420 -242 -148 -85 -283 -167 -298 -181 -63 -59 -85 -157 -53
-233 30 -71 117 -129 193 -129 60 0 30 -16 945 512 323 186 351 205 379 259
31 62 24 153 -17 211 -52 76 -159 108 -248 76z"/>
<path d="M7226 5195 c-74 -26 -136 -115 -136 -195 0 -53 31 -119 73 -155 91
-78 211 -71 294 16 40 43 53 77 53 140 0 64 -18 105 -66 150 -62 58 -137 73
-218 44z"/>
<path d="M4700 5048 c-29 -15 -56 -40 -76 -70 l-32 -47 -7 -554 c-9 -653 -5
-857 17 -907 8 -19 33 -51 55 -71 85 -76 217 -68 298 19 54 58 55 67 55 801
l0 676 -24 50 c-13 28 -34 60 -47 72 -61 56 -163 69 -239 31z"/>
<path d="M4094 4886 c-17 -8 -92 -49 -165 -92 -300 -174 -312 -184 -331 -277
-34 -166 134 -298 289 -227 84 38 399 223 432 254 140 130 52 357 -140 356
-30 -1 -68 -7 -85 -14z"/>
<path d="M6535 4887 c-43 -20 -102 -89 -114 -134 -32 -113 16 -195 162 -279
45 -26 123 -71 173 -100 197 -116 256 -128 351 -74 41 24 57 40 78 85 24 47
27 64 22 111 -11 106 -35 127 -345 304 -154 88 -166 93 -230 97 -43 2 -78 -1
-97 -10z"/>
<path d="M5496 4805 c-58 -20 -88 -46 -115 -98 -49 -95 -19 -216 67 -272 20
-13 150 -88 287 -168 138 -79 381 -220 540 -312 160 -93 303 -175 319 -184
110 -55 242 -14 292 92 28 60 30 112 8 165 -30 72 -38 78 -419 298 -93 54
-206 119 -250 144 -633 368 -635 369 -729 335z"/>
<path d="M5332 4189 c-45 -13 -118 -88 -132 -136 -8 -25 -10 -124 -8 -298 3
-299 7 -315 90 -371 82 -55 165 -53 247 7 75 54 80 76 82 375 2 241 1 263 -18
305 -43 96 -157 148 -261 118z"/>
<path d="M4015 4141 c-73 -34 -125 -115 -125 -195 0 -46 43 -130 81 -159 76
-56 191 -54 263 5 96 79 103 232 14 315 -57 53 -159 68 -233 34z"/>
<path d="M5915 3744 c-75 -39 -115 -105 -115 -189 0 -69 17 -110 63 -154 70
-66 193 -72 267 -12 61 49 80 86 80 158 0 93 -36 155 -112 194 -46 24 -141 25
-183 3z"/>
</g>
</svg>
